<svg id="baa49ce8-9636-4769-84f8-a810bd84e5fe" data-name="Layer 1" xmlns="http://www.w3.org/2000/svg" viewBox="0 0 2184.23 512"><path d="M157.41,387.12a66.55,66.55,0,0,1-14.78-32.57c-4.48-26.73-.78-52.39,11.6-76.48,11.16-21.72,29.19-36.27,51.12-46.25a123.41,123.41,0,0,1,51.54-11.3c16.31,0,32.1,3.6,47.62,8.36a163.12,163.12,0,0,1,30.83,13c4.26,2.34,7.87,5.35,9.33,10.21,3,9.89-6,20-16.42,18.12-8.19-1.5-16.25-3.69-24.36-5.64-13.31-3.21-26.66-6.3-40.43-6.46-34.89-.4-61.43,18.42-74,52.13-3.1,8.3-3.51,17-4.07,25.63-.82,12.66-3.68,24.65-11.1,35.22A60.61,60.61,0,0,1,157.41,387.12Z"/><path d="M291,426.48C287.62,411.81,278,403.85,263.54,401c.21-.43.26-.7.42-.81,20.86-15.33,36.53-35.21,49.35-57.38,10-17.27,19.07-35,28.92-52.4A144.45,144.45,0,0,1,356,269.92c7.25-8.8,18-10.87,28.77-6.4-1.36,4.68-2.35,9.58-4.17,14.15-11.77,29.53-23.59,59.05-35.67,88.47C334.3,392,316.7,412,292.38,425.9A12,12,0,0,1,291,426.48Z"/><path d="M138.59,290.52c.4-12.56.46-25.14,1.29-37.68,1.43-21.64,2.73-43.32,5.2-64.86,3-26.32,7.15-52.51,10.89-78.74.8-5.62,1.81-11.22,3.11-16.73C161,84.3,167.52,80.62,175.29,83c5,1.51,8,5.73,8,12-.1,8.26-.59,16.52-.93,24.78q-1.55,36.92-3.09,73.82c-.58,14.62-1,29.26-1.56,43.88a3.44,3.44,0,0,1-1,2.38c-11.58,8.48-19.73,19.85-26.94,32C146,278,142.58,284.26,139,290.49Z"/><path d="M186.55,232.2c-.57-16-1.71-32,5.08-46.91,2.4-5.29,5.67-10.21,8.7-15.2q25.36-41.82,50.79-83.6a21.25,21.25,0,0,1,7.95-7.91c4.91-2.7,9.93-2.34,13.7,1A11.9,11.9,0,0,1,275.7,93c-3.72,9.34-7.53,18.64-11.35,27.94q-19.08,46.5-38.17,93a5.48,5.48,0,0,1-3.25,3.31c-11.3,4.6-22.55,9.31-33.82,14C188.33,231.58,187.54,231.84,186.55,232.2Z"/><path d="M234,214.22c4-9.43,7.49-18.37,11.54-27.06,1-2.23,3.46-4.13,5.68-5.44q54-32,108.11-63.69c4.14-2.43,8.58-3.6,12.93-.79,4.18,2.7,6.76,6.63,6.61,11.84-.12,4.23-2.69,7.18-5.77,9.67-12.19,9.85-24.38,19.71-36.66,29.45C318,182.82,299.45,197.32,281,211.94a9.66,9.66,0,0,1-6.52,2.34c-12.32-.14-24.65-.06-37-.06Z"/><path d="M188.59,360.24c2.77,4.54,5.2,8.79,7.89,12.88,9.3,14.16,21,25.46,37.4,31.12,8.08,2.79,16.45,3.45,24.91,3.66a29.51,29.51,0,0,1,13.91,3.39c7.33,4.08,9.82,10.83,10.45,18.63-40,14-99.35-.25-122.69-36.43C174.27,386.35,181.87,373.82,188.59,360.24Z"/><path d="M393.41,239.79a18.51,18.51,0,0,0-3.77-.7c-4.81.12-9.06,2.13-12.95,4.69-4.36,2.87-8.44,6.18-12.63,9.32-.86.64-1.64,1.38-2.88,2.43,3.28-9.55,8.85-17.83,8.27-27.77l-.79-.27a11,11,0,0,0-.73,1.46c-3.28,9.43-6.53,18.86-9.84,28.28a4.57,4.57,0,0,1-1.39,1.66c-2,1.76-4,3.46-6.23,5.32-2,1.34-5.64,1.28-5.19,1.85.37-.15,3.56,2.16,7.5-.34,6.47-5.12,12.82-10.4,19.43-15.34,6.3-4.7,13.07-8.62,21.05-9.83Z"/><path d="M577.58,290.48,610,237c3.39-5.72,6.29-14.08,5.81-20.68v-.22h23.71l-7,4.84c-5.81,4-12.83,10.34-16.22,16.06l-34.85,56.76v60.5a39.57,39.57,0,0,0,5.81,19.36l1.94,2.42H543.94l1.45-2.42c3.39-5.28,6.05-13.2,6.05-19.36v-48l-37.51-68.64a57.71,57.71,0,0,0-14.76-17.38l-5.32-4.18h52.51v.44a31.82,31.82,0,0,0,2.42,21.12Z" stroke="#1d1d1b" stroke-miterlimit="10" stroke-width="3.74"/><path d="M660.83,344.16c6,17.38,18.63,27.28,35.33,27.28,13.55,0,31.94-6.6,36.06-27.28l3.14,3.08c-4.11,14.74-18.15,31-48.16,31-35.57,0-60.5-23.76-60.5-58.74,0-35.64,25.17-60.06,62.92-60.06,27.11,0,42.84,12.76,42.84,31.24C732.46,312.26,710.44,331,660.83,344.16Zm44.28-60.28c0-13.42-7.5-19.8-17.18-19.8-17.91,0-31,22.22-31,53.24a89.9,89.9,0,0,0,2.67,22.44C687,322.16,705.11,304.34,705.11,283.88Z" stroke="#1d1d1b" stroke-miterlimit="10" stroke-width="3.74"/><path d="M745,216.12h37.75v74.8c7.75-19.58,23.72-31.46,44.77-31.46,29.29,0,50.58,23.54,50.58,57.2,0,36.74-26.38,61.6-64.85,61.6-32.67,0-60.75-17.82-60.75-53.68V237.9a35.71,35.71,0,0,0-5.8-18.92Zm68,157.74c20.82,0,35.09-22,35.09-53.46,0-31-13.79-51.7-33.63-51.7-18.4,0-31.22,17.82-31.71,51v4.84C782.79,359.78,796.83,373.86,813,373.86Z" stroke="#1d1d1b" stroke-miterlimit="10" stroke-width="3.74"/><path d="M1038.1,378.26c-47.92,0-84.22-32.78-84.22-82.06,0-49.5,36.3-82.28,85.19-82.28,35.33,0,60.5,17.38,60.5,38.28,0,13.86-10.65,20.9-30.49,17.6,7.5-25.74-5.09-51.26-31.71-51.26-29,0-52.75,30.58-52.75,76.34s23.71,76.56,60,76.56a65.6,65.6,0,0,0,29.77-7V304.34h-.73c-14.27,0-29.76,6.38-39.2,16.28l-1.94,2,5.09-22.88h67v76.34l-2.42-.88c-10.65-4-24.68-3.52-43.8.88A82.76,82.76,0,0,1,1038.1,378.26Z" stroke="#1d1d1b" stroke-miterlimit="10" stroke-width="3.74"/><path d="M1241.86,354.28a39.29,39.29,0,0,0,5.57,19.36l1.94,2.42h-37.76V364.84c-6.29,8.58-18.39,13.42-35.33,13.42-29.53,0-49.85-14.74-49.85-36.3,0-27.72,33.64-42.24,85.18-35.2V301c0-24-9.92-37-28.55-37-17.91,0-26.14,11.66-19.61,33.66-17.66,3.08-27.58-2.64-27.58-13.2,0-14.52,17.42-25.08,50.33-25.08,36.3,0,55.66,13,55.66,42.24Zm-30.25-42.9c-34.85-4.84-54.93,5.94-54.93,29.26,0,18,11.61,30.8,29.28,30.8,14.52,0,25.41-8.8,25.65-22Z" stroke="#1d1d1b" stroke-miterlimit="10" stroke-width="3.74"/><path d="M1312.77,376.06h-45.26l1.7-2.42a37.2,37.2,0,0,0,5.8-19.36V237.9a35.71,35.71,0,0,0-5.8-18.92l-1.7-2.86h37.75V354.28a37.21,37.21,0,0,0,5.81,19.36Z" stroke="#1d1d1b" stroke-miterlimit="10" stroke-width="3.74"/><path d="M1376.9,376.06h-45.26l1.7-2.42a37.2,37.2,0,0,0,5.8-19.36V237.9a35.71,35.71,0,0,0-5.8-18.92l-1.7-2.86h37.75V354.28a37.21,37.21,0,0,0,5.81,19.36Z" stroke="#1d1d1b" stroke-miterlimit="10" stroke-width="3.74"/><path d="M1430.14,344.16c6,17.38,18.63,27.28,35.33,27.28,13.55,0,31.94-6.6,36.06-27.28l3.14,3.08c-4.11,14.74-18.15,31-48.16,31-35.57,0-60.5-23.76-60.5-58.74,0-35.64,25.17-60.06,62.92-60.06,27.11,0,42.84,12.76,42.84,31.24C1501.77,312.26,1479.75,331,1430.14,344.16Zm44.28-60.28c0-13.42-7.5-19.8-17.18-19.8-17.91,0-31,22.22-31,53.24a89.9,89.9,0,0,0,2.67,22.44C1456.27,322.16,1474.42,304.34,1474.42,283.88Z" stroke="#1d1d1b" stroke-miterlimit="10" stroke-width="3.74"/><path d="M1569,376.06h-45.25l1.69-2.42a37.21,37.21,0,0,0,5.81-19.36V283.44a36.46,36.46,0,0,0-5.81-19.14l-1.69-2.42h37.75v26.4c6.78-18,20.09-28.82,39.45-28.82,17.67,0,28.56,9.24,28.56,22.88,0,12.76-9.68,18.48-27.11,15.4,6-20.46,2.42-31.24-10.16-31.24-17.19,0-30.74,20.9-30.74,53.46v34.32a37.21,37.21,0,0,0,5.81,19.36Z" stroke="#1d1d1b" stroke-miterlimit="10" stroke-width="3.74"/><path d="M1653.26,282.78a49.43,49.43,0,0,0-11.86-16.72l-4.6-4.18h50.1l-1,1.76a25,25,0,0,0-.24,19.14l30.49,72.82,31.7-72.82a26.14,26.14,0,0,0,0-19.14l-.72-1.76h22.75l-4.36,4.18a50.84,50.84,0,0,0-12.34,16.72l-40.66,93.28c-15,33.66-28.07,48-50.34,48-17.9,0-32.91-9-32.91-23.76,0-11.88,9.68-17.6,27.35-14.3-6.54,21.34-1.94,33.44,10.89,33.44,9.19,0,18.39-6.82,26.86-19.36,5.32-7.26-1.94-24-11.62-46.64Z" stroke="#1d1d1b" stroke-miterlimit="10" stroke-width="3.74"/></svg>